<svg xmlns="http://www.w3.org/2000/svg" viewBox="5 5 18 18">
    <g id="icon_menu" transform="translate(-1268 -280)">
        <rect id="bg" width="28" height="28" transform="translate(1268 280)" fill="none"/>
        <path id="icon_set_icon_close" d="M10.4,8.977l7.312-7.31a1,1,0,0,0,0-1.4.984.984,0,0,0-1.4,0L9,7.577,1.686.268a1,1,0,0,0-1.4,0,.986.986,0,0,0,0,1.4L7.6,8.977.291,16.287a1,1,0,0,0,0,1.4.951.951,0,0,0,.7.287,1.046,1.046,0,0,0,.7-.281L9,10.383l7.312,7.31a.956.956,0,0,0,.7.281,1.039,1.039,0,0,0,.7-.279,1,1,0,0,0,0-1.4Z" transform="translate(1273.001 285.025)" fill="#5c2d91"/>
    </g>
</svg>
